<svg xmlns="http://www.w3.org/2000/svg" viewBox="0 0 512 512">
  <g transform="translate(256 256) scale(1.22) translate(-256 -279)">
    <polygon points="106,367 256,442 256,458 106,383" fill="#05352a"/><polygon points="256,442 406,367 406,383 256,458" fill="#05352a"/><polygon points="256,292 406,367 256,442 106,367" fill="#05352a"/><polygon points="106,319 256,394 256,410 106,335" fill="#05352a"/><polygon points="256,394 406,319 406,335 256,410" fill="#05352a"/><polygon points="256,244 406,319 256,394 106,319" fill="#05352a"/><polygon points="106,271 256,346 256,362 106,287" fill="#05352a"/><polygon points="256,346 406,271 406,287 256,362" fill="#05352a"/><polygon points="256,196 406,271 256,346 106,271" fill="#05352a"/><polygon points="106,223 256,298 256,314 106,239" fill="#05352a"/><polygon points="256,298 406,223 406,239 256,314" fill="#05352a"/><polygon points="256,148 406,223 256,298 106,223" fill="#05352a"/><polygon points="106,175 256,250 256,266 106,191" fill="#05352a"/><polygon points="256,250 406,175 406,191 256,266" fill="#05352a"/><polygon points="256,100 406,175 256,250 106,175" fill="#05352a"/><polygon points="106,367 256,442 256,458 106,383" fill="#074231"/><polygon points="256,442 406,367 406,383 256,458" fill="#074231"/><path d="M256,292 L406,367 L256,442 L106,367 Z M256,328 L334,367 L256,406 L178,367 Z" fill="#0e8262" fill-rule="evenodd"/><polygon points="106,319 256,394 256,410 106,335" fill="#09503c"/><polygon points="256,394 406,319 406,335 256,410" fill="#09503c"/><path d="M256,244 L406,319 L256,394 L106,319 Z M256,280 L334,319 L256,358 L178,319 Z" fill="#109773" fill-rule="evenodd"/><polygon points="106,271 256,346 256,362 106,287" fill="#0b5f48"/><polygon points="256,346 406,271 406,287 256,362" fill="#0b5f48"/><path d="M256,196 L406,271 L256,346 L106,271 Z M256,232 L334,271 L256,310 L178,271 Z" fill="#12ad86" fill-rule="evenodd"/><polygon points="106,223 256,298 256,314 106,239" fill="#0d6e54"/><polygon points="256,298 406,223 406,239 256,314" fill="#0d6e54"/><path d="M256,148 L406,223 L256,298 L106,223 Z M256,184 L334,223 L256,262 L178,223 Z" fill="#14c79b" fill-rule="evenodd"/><polygon points="106,175 256,250 256,266 106,191" fill="#0f7d60"/><polygon points="256,250 406,175 406,191 256,266" fill="#0f7d60"/><path d="M256,100 L406,175 L256,250 L106,175 Z M256,136 L334,175 L256,214 L178,175 Z" fill="#16e0b0" fill-rule="evenodd"/>
  </g>
</svg>
